<?xml version="1.0" standalone="no"?>
<!DOCTYPE svg PUBLIC "-//W3C//DTD SVG 20010904//EN"
 "http://www.w3.org/TR/2001/REC-SVG-20010904/DTD/svg10.dtd">
<svg version="1.0" xmlns="http://www.w3.org/2000/svg"
 width="700.000000pt" height="700.000000pt" viewBox="0 0 700.000000 700.000000"
 preserveAspectRatio="xMidYMid meet">
<metadata>
Created by potrace 1.11, written by Peter Selinger 2001-2013
</metadata>
<g transform="translate(0.000000,700.000000) scale(0.100000,-0.100000)"
fill="#000000" stroke="none">
<path d="M540 6000 l0 -440 155 0 155 0 0 290 0 290 2650 0 2650 0 0 -2655 0
-2655 -2650 0 -2650 0 0 280 0 280 -155 0 -155 0 0 -430 0 -430 2960 0 2960 0
0 2955 0 2955 -2960 0 -2960 0 0 -440z"/>
<path d="M1102 4873 l3 -998 395 1 c321 1 414 4 494 18 333 56 573 227 701
499 80 169 118 425 97 649 -44 473 -316 752 -795 817 -45 6 -254 11 -488 11
l-409 0 2 -997z m768 556 c190 -23 299 -122 347 -315 23 -94 23 -340 0 -442
-55 -244 -198 -352 -469 -352 l-108 0 0 553 c0 305 3 557 7 560 10 10 128 8
223 -4z"/>
<path d="M2715 5858 c5 -15 608 -1867 631 -1940 l16 -48 314 0 314 0 10 23 c6
12 152 456 325 987 174 531 318 971 320 978 3 9 -60 12 -298 12 l-302 0 -129
-478 c-71 -262 -138 -508 -148 -547 -28 -106 -78 -361 -78 -397 0 -53 -9 -26
-30 88 -27 149 -59 276 -210 838 -71 266 -130 487 -130 490 0 3 -137 6 -305 6
-239 0 -303 -3 -300 -12z"/>
<path d="M5510 3470 l0 -2370 190 0 190 0 -2 2368 -3 2367 -187 3 -188 2 0
-2370z"/>
<path d="M1100 2325 l0 -1265 235 0 235 0 0 1265 0 1265 -235 0 -235 0 0
-1265z"/>
<path d="M1910 2325 l0 -1265 865 0 865 0 0 130 0 130 -685 0 -685 0 0 465 0
465 640 0 640 0 0 130 0 130 -640 0 -640 0 0 410 0 410 685 0 685 0 0 130 0
130 -865 0 -865 0 0 -1265z"/>
</g>
</svg>
